<svg width="12" height="5" viewBox="0 0 12 5" fill="none" xmlns="http://www.w3.org/2000/svg">
<path d="M2.73611 0.0521569L0.0693952 2.36315C0.0231074 2.40659 0 2.45866 0 2.51947C0 2.57597 0.0231074 2.62584 0.0693952 2.6692L2.73614 4.94757C2.8103 5.004 2.89125 5.01488 2.97923 4.9802C3.06718 4.94545 3.11116 4.88255 3.11116 4.79141V3.33324L11.778 3.33324C11.8428 3.33324 11.8961 3.31375 11.9377 3.27464C11.9792 3.23559 12 3.18574 12 3.12491V1.87509C12 1.81424 11.9792 1.7643 11.9377 1.72545C11.896 1.68644 11.8428 1.66679 11.778 1.66679L3.11116 1.66679L3.11116 0.208613C3.11116 0.121835 3.06716 0.0589746 2.97923 0.0199633C2.89115 -0.0149213 2.8102 -0.00402311 2.73611 0.0521569Z" fill="#D93C47"/>
</svg>
